<svg width="30" height="30" viewBox="0 0 30 30" fill="none" xmlns="http://www.w3.org/2000/svg">
<path d="M6.75 24.4999C5.8125 23.5624 5.07812 22.4791 4.54688 21.2499C4.01562 20.0207 3.75 18.7499 3.75 17.4374C3.75 16.1249 4 14.828 4.5 13.5468C5 12.2655 5.8125 11.0624 6.9375 9.93741C7.66667 9.20824 8.56771 8.58324 9.64062 8.06241C10.7135 7.54157 11.9844 7.13011 13.4531 6.82803C14.9219 6.52595 16.599 6.34366 18.4844 6.28116C20.3698 6.21866 22.4792 6.29157 24.8125 6.49991C24.9792 8.70824 25.0312 10.7395 24.9688 12.5937C24.9062 14.4478 24.7344 16.1197 24.4531 17.6093C24.1719 19.0989 23.776 20.4009 23.2656 21.5155C22.7552 22.6301 22.125 23.5624 21.375 24.3124C20.2708 25.4166 19.099 26.2239 17.8594 26.7343C16.6198 27.2447 15.3542 27.4999 14.0625 27.4999C12.7083 27.4999 11.3854 27.2343 10.0938 26.703C8.80208 26.1718 7.6875 25.4374 6.75 24.4999ZM10.25 23.9999C10.8542 24.3541 11.474 24.6093 12.1094 24.7655C12.7448 24.9218 13.3958 24.9999 14.0625 24.9999C15.0208 24.9999 15.9688 24.8072 16.9062 24.4218C17.8438 24.0364 18.7396 23.4166 19.5938 22.5624C19.9688 22.1874 20.349 21.6614 20.7344 20.9843C21.1198 20.3072 21.4531 19.4218 21.7344 18.328C22.0156 17.2343 22.2292 15.9114 22.375 14.3593C22.5208 12.8072 22.5417 10.9582 22.4375 8.81241C21.4167 8.77074 20.2656 8.75511 18.9844 8.76553C17.7031 8.77595 16.4271 8.87491 15.1562 9.06241C13.8854 9.24991 12.6771 9.55199 11.5312 9.96866C10.3854 10.3853 9.44792 10.9582 8.71875 11.6874C7.78125 12.6249 7.13542 13.552 6.78125 14.4687C6.42708 15.3853 6.25 16.2707 6.25 17.1249C6.25 18.3541 6.48438 19.4322 6.95312 20.3593C7.42188 21.2864 7.83333 21.9374 8.1875 22.3124C9.0625 20.6457 10.2188 19.0468 11.6562 17.5155C13.0938 15.9843 14.7708 14.7291 16.6875 13.7499C15.1875 15.0624 13.8802 16.5468 12.7656 18.203C11.651 19.8593 10.8125 21.7916 10.25 23.9999Z" fill="#18181A"/>
</svg>
