<svg width="20" height="20" viewBox="0 0 20 20" fill="none" xmlns="http://www.w3.org/2000/svg">
<path d="M14.7435 9.26961C14.6573 9.22832 14.5698 9.18858 14.4812 9.15053C14.3268 6.30606 12.7725 4.6776 10.1627 4.66094C10.1509 4.66086 10.1391 4.66086 10.1273 4.66086C8.56631 4.66086 7.26805 5.32718 6.46898 6.53966L7.90429 7.52425C8.50123 6.61857 9.43806 6.4255 10.128 6.4255C10.136 6.4255 10.144 6.4255 10.1519 6.42557C11.0112 6.43105 11.6596 6.6809 12.0793 7.16813C12.3847 7.52284 12.589 8.01302 12.6901 8.63165C11.9282 8.50216 11.1043 8.46234 10.2235 8.51284C7.74218 8.65577 6.14701 10.1029 6.25415 12.1137C6.30851 13.1337 6.81666 14.0112 7.68492 14.5845C8.41902 15.0691 9.3645 15.306 10.3471 15.2524C11.6448 15.1812 12.6628 14.6861 13.373 13.7808C13.9124 13.0933 14.2536 12.2024 14.4042 11.0798C15.0226 11.453 15.481 11.9442 15.7341 12.5346C16.1645 13.5382 16.1896 15.1875 14.8439 16.5321C13.6648 17.71 12.2475 18.2196 10.1056 18.2353C7.72962 18.2177 5.93271 17.4557 4.76441 15.9705C3.67038 14.5798 3.10499 12.571 3.0839 10C3.10499 7.42894 3.67038 5.42017 4.76441 4.02945C5.93271 2.54426 7.72959 1.78229 10.1056 1.76464C12.4988 1.78243 14.327 2.54806 15.54 4.04042C16.1348 4.77225 16.5832 5.69258 16.8789 6.76566L18.5609 6.3169C18.2025 4.99606 17.6387 3.85789 16.8714 2.91396C15.3163 1.0007 13.0419 0.0203279 10.1114 0H10.0997C7.17519 0.0202573 4.92628 1.00435 3.41547 2.92493C2.07105 4.634 1.37756 7.01205 1.35426 9.99297L1.35419 10L1.35426 10.007C1.37756 12.9879 2.07105 15.366 3.41547 17.0751C4.92628 18.9956 7.17519 19.9798 10.0997 20H10.1114C12.7115 19.982 14.5442 19.3013 16.054 17.7928C18.0293 15.8194 17.9698 13.3457 17.3188 11.8272C16.8517 10.7382 15.9612 9.85377 14.7435 9.26961ZM10.2542 13.4903C9.16674 13.5516 8.03694 13.0634 7.98123 12.0179C7.93994 11.2427 8.53292 10.3777 10.321 10.2747C10.5257 10.2629 10.7267 10.2571 10.9241 10.2571C11.5736 10.2571 12.1812 10.3202 12.7336 10.4409C12.5275 13.0141 11.319 13.4319 10.2542 13.4903Z" fill="white"/>
</svg>
